<?xml version="1.0" encoding="utf-8"?>
<!-- Generator: Adobe Illustrator 16.0.3, SVG Export Plug-In . SVG Version: 6.00 Build 0)  -->
<!DOCTYPE svg PUBLIC "-//W3C//DTD SVG 1.1//EN" "http://www.w3.org/Graphics/SVG/1.1/DTD/svg11.dtd">
<svg version="1.1" id="Calque_1" xmlns="http://www.w3.org/2000/svg" xmlns:xlink="http://www.w3.org/1999/xlink" x="0px" y="0px"
	 width="254px" height="545px" viewBox="0 0 254 545" enable-background="new 0 0 254 545" xml:space="preserve">
<path display="none" fill="#FFFFFF" d="M243.667,503c0,20.987-17.013,38-38,38H47c-20.987,0-38-17.013-38-38V45.334
	c0-20.987,17.013-38,38-38h158.667c20.987,0,38,17.013,38,38V503z"/>
<path fill="#D30529" d="M188.736,12.325h-36.615c0.359,0.427,0.877,0.886,1.507,1.299c4.528,2.966,11.396,10.11,12.492,12.994
	c1.649,4.341,1.278,10.106-1.05,16.333c-1.338,3.573-1.901,6.771-1.523,8.655c0.712,3.562-2.786,11.11-6.926,14.95
	c-1.493,1.384-3.609,4.26-4.702,6.392s-3.805,5.849-6.026,8.259c-2.221,2.41-3.889,5.151-3.703,6.093
	c0.184,0.942,2.826,3.053,5.871,4.692c3.047,1.639,7.606,4.854,10.135,7.146c2.527,2.292,7.63,6.313,11.339,8.933
	c13.327,9.422,19.722,25.53,19.788,49.849c0.029,10.775,5.285,36.033,9.05,43.492c5.157,10.216,7.024,15.848,8.638,26.043
	c2.072,13.101,2.135,13.249,6.301,14.988c3.981,1.664,14.293,10.035,14.293,11.604c0,0.54,1.02,2.41,2.265,4.157l1.39,1.947V54.844
	C231.256,31.361,212.219,12.325,188.736,12.325z M230.622,297.04c0,0.511-2.242,3.38-4.981,6.378
	c-19.104,20.9-51.799,16.243-63.801-9.091c-2.904-6.132-3.207-7.672-3.207-16.334c0-8.271,0.366-10.346,2.698-15.323
	c3.729-7.956,10.847-15.244,18.628-19.076c3.54-1.742,6.646-3.504,6.898-3.916c0.254-0.411-2.941-7.623-7.102-16.029
	c-9.583-19.364-10.718-22.828-15.066-45.959c-1.967-10.455-3.778-19.573-4.029-20.267c-0.805-2.229-3.618-1.36-10.575,3.264
	l-6.806,4.524l-6.168,15.623c-3.391,8.591-6.168,16.897-6.168,18.457c0,1.755,0.998,3.767,2.613,5.276
	c4.031,3.768,5.119,6.533,11.951,30.398c5.034,17.58,6.156,22.716,5.354,24.48c-0.771,1.688-0.271,5.394,2.047,15.172
	c3.408,14.388,4.679,22.013,6.268,37.605c1.611,15.83,3.315,20.844,12.486,36.75c6.097,10.572,7.969,16.944,12.25,41.694
	c1.964,11.356,3.947,21.354,4.408,22.214c0.462,0.859,2.457,3.971,4.435,6.909c5.438,8.083,6.259,11.803,4.304,19.58
	c-0.894,3.554-1.903,8.906-2.246,11.896c-0.687,5.984,1.479,20.477,3.938,26.365c0.831,1.986,1.282,4.481,1.005,5.546
	c-0.279,1.063,0.885,6.382,2.583,11.816c5.313,16.998,5.078,24.208-1.041,31.936c-1.096,1.384-1.684,2.171-2.036,2.702
	c18.391-4.685,31.994-21.354,31.994-41.204V296.186C230.886,296.323,230.622,296.653,230.622,297.04z"/>
<g>
	<polygon fill="#0E499D" points="147.143,449.786 142.927,479.974 151.521,479.974 147.307,449.786 	"/>
	<path fill="#0E499D" d="M105.235,455.964c0-3.985-1.736-7.372-4.876-7.372h-3.72v14.545h3.72
		C103.499,463.137,105.235,459.75,105.235,455.964z"/>
	<path fill="#0E499D" d="M183.695,526.979c-2.877-4.19-2.846-2.719-0.766-36.279c0.497-8.028,0.331-10.678-0.754-11.984
		c-0.824-0.994-1.408-4.094-1.432-7.61c-0.036-5.326-0.751-7.315-7.006-19.461c-6.674-12.964-6.913-13.672-5.728-16.952
		c1.106-3.059,0.949-4.088-1.469-9.664c-2.412-5.562-3.497-6.773-9.957-11.134c-12.532-8.457-22.604-17.079-39.377-33.705
		c-18.725-18.567-34.272-38.981-48.689-63.936c-5.006-8.664-5.398-9.025-9.82-9.048c-3.32-0.016-7.307-2.912-7.292-5.301
		c0.004-0.691-4.059-9.641-9.029-19.885c-12.898-26.587-14.001-32.248-10.057-51.606c2.341-11.479,2.781-12.511,7.663-17.915
		c5.183-5.735,4.37-7.351-4.119-8.189c-11.341-1.123-11.225-1.052-13.576-8.329c-1.156-3.579-2.102-7.635-2.102-9.013
		c0-4.567,5.186-19.021,12.316-34.325c3.868-8.306,8.828-19.633,11.021-25.171c7.803-19.708,18.568-35.466,27.26-39.901
		c3.475-1.772,10.229-3.105,30.328-5.988c11.188-1.605,11.976-2.418,13.583-14.015c0.935-6.744,0.842-7.801-0.924-10.661
		c-1.274-2.06-1.962-4.976-1.962-8.313c0-4.694,0.263-5.277,3.021-6.703c2.666-1.378,3.021-2.085,3.021-6.017
		c0-9.406,1.897-14.644,7.176-19.777c1.464-1.426,2.768-2.773,3.67-3.77H59.565c-23.482,0-42.52,19.036-42.52,42.52v433.587
		c0,23.482,19.037,42.52,42.52,42.52H186.05C185.623,530.011,184.73,528.487,183.695,526.979z M73.826,506.373H56.968
		l-10.247-43.935h-0.166v43.935H32.176v-71.132h17.189l9.916,43.835h0.166v-43.835h14.379V506.373z M104.491,506.373H81.268v-71.132
		h23.223c10.991,0,16.114,7.073,16.114,17.733c0,7.571-2.728,14.346-9.255,15.938v0.199c7.768,0.896,10.909,8.867,10.909,16.239
		C122.259,497.705,117.301,506.373,104.491,506.373z M154.91,506.373l-1.57-12.452h-12.23l-1.569,12.452h-16.366l14.383-71.132
		h19.338l14.379,71.132H154.91z"/>
	<path fill="#0E499D" d="M100.937,475.689h-4.298v17.335h4.298c2.81,0,5.454-2.989,5.454-8.767
		C106.391,478.778,103.746,475.689,100.937,475.689z"/>
</g>
</svg>
